<svg width="65" height="57" viewBox="0 0 65 57" fill="none" xmlns="http://www.w3.org/2000/svg">
<path opacity="0.2" d="M24.4343 56.9829V32.88H11.6229C11.6229 30.419 11.7676 27.9581 12.0571 25.4971C12.4914 22.8914 13.2152 20.5752 14.2286 18.5486C15.2419 16.5219 16.5448 14.9295 18.1371 13.7714C19.7295 12.4686 21.7562 11.8171 24.2171 11.8171V0.959993C20.1638 0.959993 16.6171 1.82857 13.5771 3.56571C10.5371 5.30285 8.00381 7.61904 5.97714 10.5143C4.09524 13.4095 2.64762 16.8114 1.63429 20.72C0.765714 24.4838 0.331428 28.5371 0.331428 32.88V56.9829H24.4343ZM64.1714 56.9829V32.88H51.36C51.36 30.419 51.5048 27.9581 51.7943 25.4971C52.2286 22.8914 52.9524 20.5752 53.9657 18.5486C54.9791 16.5219 56.2819 14.9295 57.8743 13.7714C59.4667 12.4686 61.4933 11.8171 63.9543 11.8171V0.959993C59.901 0.959993 56.3543 1.82857 53.3143 3.56571C50.2743 5.30285 47.741 7.61904 45.7143 10.5143C43.8324 13.4095 42.3848 16.8114 41.3714 20.72C40.5029 24.4838 40.0686 28.5371 40.0686 32.88V56.9829H64.1714Z" fill="#4379BA"/>
</svg>
